# xmcd
#
# Track frame offsets:
#	183
#	20193
#	46158
#	70650
#	87500
#	105163
#	118728
#	155098
#	173153
#	198505
#	213330
#	240305
#	259523
#	277258
#
# Disc length: 3996 seconds
# Revision: 5
# Processed by: cddbd v1.5.2PL0 Copyright (c) Steve Scherf et al.
# Submitted via: dBpowerAMP V12.0
#
DISCID=c20f9a0e
DTITLE=Otis Grand - Perfume and Grime
DYEAR=1996
DGENRE=Blues
TTITLE0=Six Ways (Pam's Tune)
TTITLE1=How Come
TTITLE2=Between Heaven and Hell
TTITLE3=Don't Ask Why
TTITLE4=Magic Mood
TTITLE5=Knock, Knock
TTITLE6=Perfume and Grime
TTITLE7=Just One More Time
TTITLE8=100 Years
TTITLE9=She's Got My Dog
TTITLE10=When My Heart Beats Like A Hammer
TTITLE11=It Took A Long Time
TTITLE12=Has Been Husband
TTITLE13=Grime Time
EXTD=
EXTT0=
EXTT1=
EXTT2=
EXTT3=
EXTT4=
EXTT5=
EXTT6=
EXTT7=
EXTT8=
EXTT9=
EXTT10=
EXTT11=
EXTT12=
EXTT13=
PLAYORDER=
